<svg width="16" height="16" viewBox="0 0 16 16" fill="none" xmlns="http://www.w3.org/2000/svg">
<mask id="mask0_178_2014" style="mask-type:alpha" maskUnits="userSpaceOnUse" x="0" y="0" width="16" height="16">
<rect width="16" height="16" fill="#D9D9D9"/>
</mask>
<g mask="url(#mask0_178_2014)">
<path d="M7.05123 10.8333L11.5333 6.35123L10.8307 5.64868L7.05123 9.42816L5.15123 7.52816L4.44868 8.23071L7.05123 10.8333ZM7.9985 14.3307C7.12254 14.3307 6.29918 14.1645 5.52843 13.832C4.75766 13.4996 4.08721 13.0484 3.51706 12.4785C2.94691 11.9086 2.49553 11.2385 2.16295 10.468C1.83036 9.69763 1.66406 8.87445 1.66406 7.9985C1.66406 7.12254 1.83028 6.29918 2.16273 5.52843C2.49517 4.75766 2.94634 4.08721 3.51623 3.51706C4.08613 2.94691 4.75629 2.49554 5.52671 2.16295C6.29712 1.83036 7.12031 1.66406 7.99626 1.66406C8.87222 1.66406 9.69557 1.83029 10.4663 2.16273C11.2371 2.49517 11.9076 2.94634 12.4777 3.51623C13.0479 4.08613 13.4992 4.75629 13.8318 5.52671C14.1644 6.29712 14.3307 7.12031 14.3307 7.99626C14.3307 8.87222 14.1645 9.69557 13.832 10.4663C13.4996 11.2371 13.0484 11.9076 12.4785 12.4777C11.9086 13.0479 11.2385 13.4992 10.468 13.8318C9.69763 14.1644 8.87445 14.3307 7.9985 14.3307Z" fill="#087112"/>
</g>
</svg>
